<svg width="50" height="50" fill="none" xmlns="http://www.w3.org/2000/svg"><g clip-path="url(#clip0_1_2)"><path fill="#1D1D1D" d="M0 0h50v50H0z"/><path d="M44.066 0H5.934A5.935 5.935 0 000 5.935v38.13A5.935 5.935 0 005.935 50h38.13A5.935 5.935 0 0050 44.066V5.934A5.935 5.935 0 0044.066 0z" fill="#FDFDFD"/><path d="M8 37.126V15h8.859c1.628 0 2.985.241 4.073.724 1.087.482 1.905 1.152 2.452 2.01.548.85.821 1.829.821 2.938 0 .864-.172 1.624-.518 2.28a4.474 4.474 0 01-1.426 1.598 5.844 5.844 0 01-2.053.875v.216a4.957 4.957 0 012.366.714c.742.439 1.343 1.055 1.804 1.847.461.785.692 1.721.692 2.809 0 1.174-.292 2.222-.875 3.144-.577.914-1.43 1.638-2.56 2.171-1.132.533-2.525.8-4.182.8H8zm4.678-3.825h3.814c1.303 0 2.254-.248 2.852-.745.598-.504.896-1.174.896-2.01 0-.612-.147-1.152-.442-1.62-.296-.468-.717-.836-1.264-1.102-.54-.267-1.185-.4-1.934-.4h-3.922v5.877zm0-9.042h3.468c.64 0 1.21-.112 1.707-.335.504-.23.9-.555 1.188-.973.296-.417.443-.918.443-1.501 0-.8-.284-1.444-.853-1.934-.562-.49-1.362-.735-2.399-.735h-3.554v5.478zm22.912 13.19c-1.707 0-3.177-.345-4.408-1.036a7.104 7.104 0 01-2.83-2.96c-.663-1.283-.995-2.799-.995-4.549 0-1.707.332-3.205.994-4.494.663-1.29 1.596-2.294 2.798-3.014 1.21-.72 2.63-1.08 4.257-1.08a8.66 8.66 0 013.057.529c.951.346 1.78.868 2.485 1.566.713.699 1.268 1.578 1.664 2.636.396 1.052.594 2.284.594 3.695v1.264H29.194v-2.852h9.68c0-.663-.144-1.25-.432-1.76a3.095 3.095 0 00-1.2-1.2c-.503-.295-1.09-.443-1.76-.443-.699 0-1.318.162-1.859.486-.533.317-.95.746-1.253 1.286a3.63 3.63 0 00-.464 1.782v2.712c0 .821.15 1.53.453 2.128.31.598.746 1.06 1.308 1.383.561.324 1.228.486 1.998.486.512 0 .98-.072 1.405-.216a2.799 2.799 0 001.782-1.707l4.257.281a5.811 5.811 0 01-1.329 2.68c-.663.756-1.52 1.346-2.571 1.771-1.045.418-2.25.627-3.62.627zm5.815-22.238H28.922v2.251h12.483v-2.25z" fill="#1D1D1D"/></g><defs><clipPath id="clip0_1_2"><path fill="#fff" d="M0 0h50v50H0z"/></clipPath></defs></svg>