<svg width="50" height="50" fill="none" xmlns="http://www.w3.org/2000/svg"><g clip-path="url(#clip0_1_10)"><path fill="#1D1D1D" d="M0 0h50v50H0z"/><path d="M19.62 32.953l-.826 13.96c1.183 0 1.695-.61 2.31-1.342l5.548-6.363 11.496 10.103c2.108 1.41 3.594.667 4.163-2.328l7.546-42.43.002-.002c.669-3.74-1.127-5.202-3.181-4.285L2.322 20.643c-3.027 1.41-2.981 3.435-.514 4.353l11.34 4.232 26.34-19.777c1.24-.985 2.367-.44 1.44.545L19.62 32.953z" fill="#FDFDFD"/></g><defs><clipPath id="clip0_1_10"><path fill="#fff" d="M0 0h50v50H0z"/></clipPath></defs></svg>