<svg xmlns="http://www.w3.org/2000/svg" width="53" height="30" fill="none"><path d="M29.066 29.987c1.345 0 1.895-.87 1.88-1.96-.07-4.109 1.576-6.32 4.546-3.438 3.286 3.189 3.966 5.398 7.956 5.398h7.067c1.784 0 2.486-.557 2.486-1.432 0-1.849-3.138-5.113-5.796-7.508-3.724-3.354-3.898-3.433-.692-7.47 3.977-5.012 9.18-11.434 4.578-11.434H42.3c-1.705 0-1.828.932-2.436 2.32-2.197 5.03-6.373 11.544-7.958 10.548-1.659-1.04-.899-5.156-.773-11.274.033-1.616.024-2.723-2.52-3.298A18.34 18.34 0 0024.62 0c-5.02 0-8.482 2.042-6.515 2.398 3.47.628 3.136 7.911 2.328 11.057-1.41 5.477-6.704-4.337-8.91-9.225-.533-1.174-.696-2.087-2.595-2.087H1.739c-1.086 0-1.738.343-1.738 1.106 0 1.29 6.536 14.4 12.777 20.935 6.086 6.375 12.101 5.803 16.288 5.803z" fill="#F0F0F0"/></svg>